<svg width="181" height="184" viewBox="0 0 181 184" fill="none" xmlns="http://www.w3.org/2000/svg">
<path fill-rule="evenodd" clip-rule="evenodd" d="M91.1665 1.1337L90.6665 0.845215L90.6661 0.845453L90.6657 0.845215L90.1656 1.1337L51.6662 23.345L51.1656 23.6337L50.6653 23.9223V23.9239L12.2667 46.134L12.2662 46.1343L12.266 46.1344L11.7669 46.4227V46.4231V46.9999V91.3637L11.6641 91.4231L11.6654 92.0021L11.7654 137.002L11.7667 137.578L12.2652 137.866L13.3788 138.509L50.6653 160.076V160.077L51.1656 160.366L51.6662 160.655L90.1651 182.866L90.1656 182.866L90.1816 182.875L90.665 183.155L90.6653 183.154L90.6657 183.155L91.149 182.875L91.1651 182.866L91.1656 182.866L129.665 160.654L129.666 160.655L130.165 160.366L130.166 160.366L130.17 160.363L130.665 160.077V160.077L169.065 137.866L169.066 137.866L169.083 137.855L169.565 137.577V137.577V137V92.5767V91.9999V91.4231V46.9999V46.4231V46.4227L169.066 46.1343L169.065 46.134L169.059 46.1302L130.667 23.9239V23.9223L130.167 23.6337L129.666 23.345L91.1665 1.1337ZM53.6913 159.486L90.6654 180.845L127.64 159.486L90.6661 138.155L53.6913 159.486ZM91.6668 90.2676V47.5766L128.667 26.2305V68.9215L91.6668 90.2676ZM91.6668 136.423V93.7321L128.665 115.077V157.768L91.6668 136.423ZM90.6661 45.845L53.692 24.5138L90.6661 3.15517L127.64 24.5138L90.6661 45.845ZM52.6653 26.2305L89.6653 47.5766V90.2685L52.6653 68.9223V26.2305ZM13.7669 47.5771V90.2099L50.6653 68.9223V26.2622L13.7669 47.5771ZM14.404 136.792L13.7669 136.423V93.7335L50.6653 115.076V157.738L14.404 136.792ZM52.6653 157.769V115.078L89.6653 93.7321V136.423L52.6653 157.769ZM167.565 136.423L130.665 157.738V115.077L167.565 93.7335V136.423ZM51.6653 70.6544L88.6642 91.9999L51.6667 113.345L14.7154 91.9717L51.6653 70.6544ZM129.665 113.345L92.6672 92.0003L129.665 70.6552L166.568 91.9999L129.665 113.345ZM167.565 90.2662V47.5771L130.667 26.2622V68.9239L167.565 90.2662Z" fill="#38BDF8"/>
</svg>
