<svg width="180" height="182" viewBox="0 0 180 182" fill="none" xmlns="http://www.w3.org/2000/svg">
<path fill-rule="evenodd" clip-rule="evenodd" d="M91.3789 1C91.3789 0.447715 90.9312 0 90.3789 0C89.8266 0 89.3789 0.447715 89.3789 1V85.3323L60.518 6.05793C60.329 5.53896 59.7552 5.27142 59.2362 5.46036C58.7172 5.6493 58.4497 6.22316 58.6386 6.74212L87.5032 86.0265L33.2421 21.4566C32.8868 21.0338 32.256 20.9791 31.8332 21.3344C31.4104 21.6897 31.3557 22.3205 31.711 22.7433L85.952 87.2893L12.9768 45.1341C12.4985 44.8578 11.8869 45.0216 11.6107 45.4998C11.3344 45.978 11.4981 46.5897 11.9764 46.8659L84.9719 89.0328L1.95092 74.4152C1.407 74.3194 0.888429 74.6827 0.79266 75.2266C0.696891 75.7705 1.06019 76.2891 1.60411 76.3849L84.6108 91L1.60411 105.615C1.06019 105.711 0.696891 106.229 0.79266 106.773C0.888429 107.317 1.407 107.681 1.95092 107.585L84.9719 92.9672L11.9764 135.134C11.4981 135.41 11.3344 136.022 11.6107 136.5C11.8869 136.978 12.4985 137.142 12.9768 136.866L85.952 94.7107L31.711 159.257C31.3557 159.679 31.4104 160.31 31.8332 160.666C32.256 161.021 32.8868 160.966 33.2421 160.543L87.5032 95.9735L58.6386 175.258C58.4497 175.777 58.7172 176.351 59.2362 176.54C59.7552 176.729 60.329 176.461 60.518 175.942L89.3789 96.6677V181C89.3789 181.552 89.8266 182 90.3789 182C90.9312 182 91.3789 181.552 91.3789 181V96.6721L120.238 175.942C120.427 176.461 121.001 176.729 121.52 176.54C122.039 176.351 122.307 175.777 122.118 175.258L93.2555 95.9803L147.511 160.543C147.866 160.966 148.497 161.021 148.92 160.666C149.343 160.31 149.397 159.679 149.042 159.257L94.801 94.7107L167.776 136.866C168.254 137.142 168.866 136.978 169.142 136.5C169.419 136.022 169.255 135.41 168.777 135.134L95.78 92.9666L178.804 107.585C179.348 107.681 179.867 107.317 179.963 106.773C180.058 106.229 179.695 105.711 179.151 105.615L96.1445 91L179.151 76.3849C179.695 76.2891 180.058 75.7705 179.963 75.2266C179.867 74.6827 179.348 74.3194 178.804 74.4152L95.78 89.0334L168.777 46.8659C169.255 46.5897 169.419 45.978 169.142 45.4998C168.866 45.0216 168.254 44.8578 167.776 45.1341L94.801 87.2893L149.042 22.7433C149.397 22.3205 149.343 21.6897 148.92 21.3344C148.497 20.9791 147.866 21.0338 147.511 21.4566L93.2555 86.0197L122.118 6.74212C122.307 6.22316 122.039 5.6493 121.52 5.46036C121.001 5.27142 120.427 5.53896 120.238 6.05793L91.3789 85.3279V1Z" fill="black"/>
</svg>
